<svg width="56" height="59" viewBox="0 0 56 59" fill="none" xmlns="http://www.w3.org/2000/svg">
<g clip-path="url(#clip0_41_9)">
<path fill-rule="evenodd" clip-rule="evenodd" d="M29.5886 28.7233C29.1367 31.1033 28.9043 33.5018 28.9046 35.781C28.9049 38.0602 29.138 40.1751 29.5905 42.0042C30.0431 43.8332 30.7061 45.3404 31.5414 46.439C32.3768 47.5377 33.368 48.2061 34.4582 48.406C35.5484 48.6058 36.716 48.3331 37.8939 47.6036C39.0718 46.874 40.2369 45.7019 41.3221 44.1548C42.4073 42.6076 43.3912 40.7158 44.2173 38.5881C45.0434 36.4604 45.6955 34.1388 46.1359 31.7567C46.5879 29.3766 46.8203 26.9781 46.82 24.6989C46.8197 22.4197 46.5865 20.3048 46.134 18.4758C45.6815 16.6467 45.0185 15.1395 44.1832 14.0409C43.3478 12.9423 42.3566 12.2738 41.2664 12.074C40.1762 11.8741 39.0086 12.1468 37.8307 12.8764C36.6527 13.6059 35.4877 14.778 34.4025 16.3252C33.3173 17.8723 32.3334 19.7641 31.5073 21.8918C30.6811 24.0195 30.0291 26.3411 29.5886 28.7233Z" fill="black"/>
<path fill-rule="evenodd" clip-rule="evenodd" d="M29.7176 30.3078C29.3121 32.4434 29.1035 34.5957 29.1038 36.6409C29.1041 38.6861 29.3133 40.5838 29.7194 42.2251C30.1255 43.8664 30.7204 45.2188 31.47 46.2046C32.2196 47.1904 33.1091 47.7902 34.0873 47.9696C35.0656 48.1489 36.1133 47.9042 37.1703 47.2495C38.2273 46.5948 39.2727 45.5431 40.2465 44.1548C41.2202 42.7664 42.1031 41.0689 42.8444 39.1596C43.5857 37.2504 44.1707 35.1671 44.566 33.0296C44.9714 30.8939 45.18 28.7416 45.1797 26.6964C45.1794 24.6512 44.9702 22.7535 44.5641 21.1122C44.158 19.471 43.5631 18.1186 42.8135 17.1327C42.0639 16.1469 41.1744 15.5471 40.1962 15.3678C39.2179 15.1885 38.1702 15.4332 37.1132 16.0878C36.0562 16.7425 35.0108 17.7942 34.0371 19.1825C33.0633 20.5709 32.1804 22.2684 31.4391 24.1777C30.6979 26.0869 30.1128 28.1702 29.7176 30.3078Z" fill="white"/>
<path fill-rule="evenodd" clip-rule="evenodd" d="M32.2194 28.3203C32.2253 30.7421 32.0119 33.1426 31.5916 35.3837C31.1713 37.6249 30.5523 39.6625 29.7703 41.3795C28.9883 43.0965 28.0587 44.459 27.0348 45.3888C26.0109 46.3185 24.913 46.7971 23.8042 46.7971C22.6954 46.7971 21.5975 46.3185 20.5736 45.3888C19.5497 44.459 18.6201 43.0965 17.8381 41.3795C17.0561 39.6625 16.4371 37.6249 16.0168 35.3837C15.5965 33.1426 15.3832 30.7421 15.389 28.3203C15.3832 25.8985 15.5965 23.498 16.0168 21.2569C16.4371 19.0157 17.0561 16.9781 17.8381 15.2611C18.6201 13.5441 19.5497 12.1816 20.5736 11.2518C21.5975 10.3221 22.6954 9.84344 23.8042 9.84344C24.913 9.84344 26.0109 10.3221 27.0348 11.2518C28.0587 12.1816 28.9883 13.5441 29.7703 15.2611C30.5523 16.9781 31.1713 19.0157 31.5916 21.2569C32.0119 23.498 32.2253 25.8985 32.2194 28.3203Z" fill="black"/>
<path fill-rule="evenodd" clip-rule="evenodd" d="M31.7977 29.8503C31.8029 32.0233 31.6115 34.1771 31.2344 36.188C30.8573 38.1989 30.3019 40.0271 29.6003 41.5677C28.8986 43.1083 28.0645 44.3308 27.1458 45.1651C26.2271 45.9993 25.242 46.4287 24.2471 46.4287C23.2522 46.4287 22.2671 45.9993 21.3484 45.1651C20.4298 44.3308 19.5956 43.1083 18.894 41.5677C18.1923 40.0271 17.637 38.1989 17.2599 36.188C16.8827 34.1771 16.6913 32.0233 16.6965 29.8503C16.6913 27.6773 16.8827 25.5235 17.2599 23.5126C17.637 21.5017 18.1923 19.6734 18.894 18.1328C19.5956 16.5923 20.4298 15.3697 21.3484 14.5355C22.2671 13.7013 23.2522 13.2719 24.2471 13.2719C25.242 13.2719 26.2271 13.7013 27.1458 14.5355C28.0645 15.3697 28.8986 16.5923 29.6003 18.1328C30.3019 19.6734 30.8573 21.5017 31.2344 23.5126C31.6115 25.5235 31.8029 27.6773 31.7977 29.8503Z" fill="white"/>
<path fill-rule="evenodd" clip-rule="evenodd" d="M26.4086 38.0435C26.4086 38.675 26.3303 39.3004 26.1783 39.8838C26.0262 40.4672 25.8034 40.9974 25.5225 41.4439C25.2416 41.8905 24.9081 42.2447 24.541 42.4864C24.174 42.728 23.7806 42.8524 23.3834 42.8524C22.9861 42.8524 22.5927 42.728 22.2257 42.4864C21.8586 42.2447 21.5251 41.8905 21.2442 41.4439C20.9633 40.9974 20.7405 40.4672 20.5884 39.8838C20.4364 39.3004 20.3582 38.675 20.3582 38.0435C20.3582 37.412 20.4364 36.7867 20.5884 36.2032C20.7405 35.6198 20.9633 35.0897 21.2442 34.6431C21.5251 34.1966 21.8586 33.8423 22.2257 33.6007C22.5927 33.359 22.9861 33.2346 23.3834 33.2346C23.7806 33.2346 24.174 33.359 24.541 33.6007C24.9081 33.8423 25.2416 34.1966 25.5225 34.6431C25.8034 35.0897 26.0262 35.6198 26.1783 36.2032C26.3303 36.7867 26.4086 37.412 26.4086 38.0435Z" fill="black"/>
<path fill-rule="evenodd" clip-rule="evenodd" d="M39.3432 39.2096C39.2538 39.8349 39.0879 40.4433 38.8548 40.9999C38.6218 41.5566 38.3261 42.0507 37.9848 42.4539C37.6435 42.8572 37.2632 43.1618 36.8656 43.3503C36.468 43.5388 36.0608 43.6075 35.6675 43.5526C35.2741 43.4976 34.9022 43.32 34.573 43.0299C34.2437 42.7398 33.9636 42.3429 33.7486 41.8619C33.5336 41.3809 33.388 40.8251 33.32 40.2264C33.252 39.6277 33.263 38.9977 33.3523 38.3724C33.4416 37.7471 33.6076 37.1387 33.8406 36.582C34.0737 36.0254 34.3693 35.5313 34.7106 35.128C35.052 34.7247 35.4323 34.4202 35.8299 34.2317C36.2275 34.0432 36.6346 33.9744 37.028 34.0294C37.4213 34.0844 37.7932 34.262 38.1225 34.5521C38.4517 34.8422 38.7318 35.239 38.9468 35.7201C39.1618 36.2011 39.3075 36.7568 39.3755 37.3556C39.4435 37.9543 39.4325 38.5843 39.3432 39.2096Z" fill="black"/>
<path fill-rule="evenodd" clip-rule="evenodd" d="M17.5162 0.271885C12.3432 1.68807 9.65887 8.24524 11.5239 14.9098C11.565 15.0569 11.6085 15.203 11.6533 15.3477C11.502 9.11262 14.2509 3.87177 18.8444 2.61395C22.1586 1.70668 25.7282 3.06903 28.6274 5.934C26.0309 1.57723 21.6048 -0.847544 17.5157 0.271695L17.5162 0.271885Z" fill="black"/>
<path fill-rule="evenodd" clip-rule="evenodd" d="M49.4159 0.399876C54.5889 1.81606 57.2732 8.37323 55.4082 15.0378C55.367 15.1849 55.3236 15.331 55.2787 15.4757C55.4301 9.24061 52.6812 3.99976 48.0876 2.74194C44.7735 1.83467 41.2038 3.19702 38.3047 6.06199C40.9012 1.70522 45.3273 -0.719553 49.4164 0.399685L49.4159 0.399876Z" fill="black"/>
<path fill-rule="evenodd" clip-rule="evenodd" d="M25.1924 55.0373C21.363 57.6999 16.5511 58.4586 12.2893 56.6218C9.3193 55.3419 7.10039 53.0116 5.81392 50.163C5.15613 50.4023 4.48039 50.595 3.79437 50.7449C5.01292 53.9477 7.35441 56.5974 10.5924 57.9929C15.5127 60.1134 21.1639 58.7704 25.193 55.0374L25.1924 55.0373Z" fill="black"/>
<path fill-rule="evenodd" clip-rule="evenodd" d="M6.01308 47.3476L7.61742 48.481L2.34598 54.4505L0.0540161 52.4859L6.01297 47.3477L6.01308 47.3476Z" fill="black" stroke="black"/>
</g>
<defs>
<clipPath id="clip0_41_9">
<rect width="56" height="59" fill="white"/>
</clipPath>
</defs>
</svg>
